<?xml version="1.0" standalone="no"?>
<!DOCTYPE svg PUBLIC "-//W3C//DTD SVG 20010904//EN"
 "http://www.w3.org/TR/2001/REC-SVG-20010904/DTD/svg10.dtd">
<svg version="1.0" xmlns="http://www.w3.org/2000/svg"
 width="919.000000pt" height="929.000000pt" viewBox="0 0 919.000000 929.000000"
 preserveAspectRatio="xMidYMid meet">
<metadata>
Created by potrace 1.16, written by Peter Selinger 2001-2019
</metadata>
<g transform="translate(0.000000,929.000000) scale(0.100000,-0.100000)"
fill="#000000" stroke="none">
<path d="M8795 6445 c4 -11 21 -56 37 -100 131 -353 216 -729 260 -1145 20
-199 17 -669 -6 -846 -3 -21 -10 -79 -17 -129 -44 -359 -130 -711 -261 -1060
-76 -204 -271 -599 -387 -783 -578 -919 -1439 -1590 -2459 -1916 -895 -286
-1897 -280 -2778 18 -230 77 -324 116 -549 225 -1258 611 -2163 1776 -2445
3146 -69 338 -93 559 -94 895 -1 373 12 546 68 855 47 259 142 600 215 769 12
27 20 54 18 59 -2 6 -30 -59 -64 -144 -176 -445 -277 -894 -314 -1394 -14
-195 -6 -605 16 -795 85 -742 330 -1430 724 -2030 282 -430 657 -831 1068
-1143 389 -294 859 -541 1323 -694 1326 -437 2794 -250 3950 504 291 190 495
356 746 607 372 373 632 732 864 1198 242 486 389 992 457 1573 24 212 24 748
-1 960 -50 432 -153 849 -300 1217 -48 121 -93 218 -71 153z"/>
</g>
</svg>
